<?xml version="1.0" standalone="no"?>
<!DOCTYPE svg PUBLIC "-//W3C//DTD SVG 20010904//EN"
 "http://www.w3.org/TR/2001/REC-SVG-20010904/DTD/svg10.dtd">
<svg version="1.0" xmlns="http://www.w3.org/2000/svg"
 width="250.000000pt" height="250.000000pt" viewBox="0 0 250.000000 250.000000"
 preserveAspectRatio="xMidYMid meet">
<metadata>
Created by potrace 1.11, written by Peter Selinger 2001-2013
</metadata>
<g transform="translate(0.000000,250.000000) scale(0.100000,-0.100000)"
fill="#000000" stroke="none">
<path d="M1225 2381 c-10 -8 -295 -173 -752 -435 l-212 -121 -1 -257 0 -256
163 -95 c89 -52 164 -93 166 -91 2 2 3 116 3 253 l0 250 246 143 c136 78 348
200 472 271 124 71 236 136 249 144 l23 15 -28 17 c-16 10 -49 29 -74 43 -25
14 -85 48 -133 77 -91 52 -106 58 -122 42z"/>
<path d="M1759 2052 c-94 -52 -255 -146 -272 -157 -15 -10 2 -23 130 -98 82
-47 164 -94 183 -105 19 -10 52 -29 73 -42 l37 -22 0 -569 c0 -313 3 -569 6
-569 3 0 38 19 77 43 40 24 111 65 159 92 63 36 88 56 89 70 3 72 1 1126 -2
1128 -7 5 -141 83 -189 110 -25 14 -90 52 -146 85 l-101 59 -44 -25z"/>
<path d="M1064 1651 c-104 -60 -204 -117 -221 -127 l-33 -19 0 -255 0 -256 63
-36 c34 -20 133 -77 220 -127 l158 -91 220 126 219 127 0 61 c2 212 1 448 -2
451 -2 2 -86 51 -188 110 -102 59 -199 116 -216 126 l-31 19 -189 -109z"/>
<path d="M260 868 l1 -193 121 -70 c67 -38 147 -84 177 -101 31 -17 87 -49
125 -72 37 -23 69 -42 71 -42 2 0 76 -43 166 -95 89 -52 163 -95 165 -95 1 0
37 -20 78 -45 84 -49 92 -51 121 -31 11 7 36 22 55 33 71 40 345 197 349 199
6 5 3 376 -3 382 -3 2 -11 0 -18 -6 -7 -5 -29 -19 -48 -29 -19 -11 -110 -63
-202 -117 l-167 -96 -48 26 c-26 15 -64 37 -83 49 -19 12 -39 24 -45 26 -5 2
-53 29 -105 60 -69 41 -632 366 -702 406 -5 2 -8 -83 -8 -189z"/>
</g>
</svg>
